<mxfile host="app.diagrams.net" modified="2023-12-06T09:10:41.681Z" agent="Mozilla/5.0 (Windows NT 10.0; Win64; x64) AppleWebKit/537.36 (KHTML, like Gecko) Chrome/119.0.0.0 Safari/537.36 Edg/119.0.0.0" etag="wRv94qnkSUgNh90rTicq" version="22.1.5" type="github">
  <diagram id="6a731a19-8d31-9384-78a2-239565b7b9f0" name="Page-1">
    <mxGraphModel dx="2646" dy="995" grid="1" gridSize="10" guides="1" tooltips="1" connect="1" arrows="1" fold="1" page="1" pageScale="1" pageWidth="1169" pageHeight="827" background="#ffffff" math="0" shadow="0">
      <root>
        <mxCell id="0" />
        <mxCell id="1" parent="0" />
        <mxCell id="2019" value="" style="rounded=1;whiteSpace=wrap;html=1;dashed=1;strokeColor=#d79b00;strokeWidth=2;fillColor=#ffe6cc;fontFamily=Verdana;fontSize=12;" parent="1" vertex="1">
          <mxGeometry x="40" y="120" width="165" height="830" as="geometry" />
        </mxCell>
        <mxCell id="2020" value="" style="rounded=1;whiteSpace=wrap;html=1;dashed=1;strokeColor=#dfbd58;strokeWidth=2;fillColor=#fff2cc;fontFamily=Verdana;fontSize=12;gradientColor=none;" parent="1" vertex="1">
          <mxGeometry x="220" y="120" width="340" height="830" as="geometry" />
        </mxCell>
        <mxCell id="2022" value="" style="rounded=1;whiteSpace=wrap;html=1;dashed=1;strokeColor=#9673a6;strokeWidth=2;fillColor=#e1d5e7;fontFamily=Verdana;fontSize=12;" parent="1" vertex="1">
          <mxGeometry x="580" y="120" width="165" height="830" as="geometry" />
        </mxCell>
        <mxCell id="2023" value="" style="rounded=1;whiteSpace=wrap;html=1;dashed=1;strokeColor=#6c8ebf;strokeWidth=2;fillColor=#dae8fc;fontFamily=Verdana;fontSize=12;" parent="1" vertex="1">
          <mxGeometry x="760" y="120" width="165" height="830" as="geometry" />
        </mxCell>
        <mxCell id="2025" value="用户界面层" style="html=1;dashed=1;strokeWidth=2;fontFamily=Helvetica;fontSize=18;fontStyle=1;fillColor=#f5f5f5;fontColor=#333333;strokeColor=none;fillStyle=dashed;" parent="1" vertex="1">
          <mxGeometry x="40" y="120" width="165" height="60" as="geometry" />
        </mxCell>
        <mxCell id="2026" value="服务层" style="whiteSpace=wrap;html=1;dashed=1;strokeColor=none;strokeWidth=2;fillColor=#3399FF;fontFamily=Helvetica;fontSize=18;fontColor=#000000;fontStyle=1;fillStyle=dashed;" parent="1" vertex="1">
          <mxGeometry x="220" y="120" width="340" height="60" as="geometry" />
        </mxCell>
        <mxCell id="2028" value="&lt;font&gt;基础设施层&lt;br&gt;&lt;/font&gt;" style="whiteSpace=wrap;html=1;dashed=1;strokeColor=none;strokeWidth=2;fillColor=#3399FF;fontFamily=Helvetica;fontSize=18;fontColor=#000000;fontStyle=1;fillStyle=dashed;" parent="1" vertex="1">
          <mxGeometry x="760" y="120.5" width="165" height="60" as="geometry" />
        </mxCell>
        <mxCell id="2031" value="" style="shape=mxgraph.arrows.two_way_arrow_horizontal;html=1;verticalLabelPosition=bottom;verticalAlign=top;strokeWidth=2;dashed=1;fontFamily=Verdana;fontSize=12;fillColor=#bac8d3;strokeColor=none;" parent="1" vertex="1">
          <mxGeometry x="180" y="131" width="67" height="39" as="geometry" />
        </mxCell>
        <mxCell id="2033" value="" style="shape=mxgraph.arrows.two_way_arrow_horizontal;html=1;verticalLabelPosition=bottom;verticalAlign=top;strokeWidth=2;strokeColor=none;dashed=1;fillColor=#bac8d3;fontFamily=Verdana;fontSize=12;" parent="1" vertex="1">
          <mxGeometry x="540" y="131" width="67" height="39" as="geometry" />
        </mxCell>
        <mxCell id="2034" value="" style="shape=mxgraph.arrows.two_way_arrow_horizontal;html=1;verticalLabelPosition=bottom;verticalAlign=top;strokeWidth=2;strokeColor=none;dashed=1;fillColor=#bac8d3;fontFamily=Verdana;fontSize=12;" parent="1" vertex="1">
          <mxGeometry x="720" y="131" width="67" height="39" as="geometry" />
        </mxCell>
        <mxCell id="2036" value="" style="verticalLabelPosition=bottom;html=1;verticalAlign=top;strokeColor=none;fillColor=#003366;shape=mxgraph.azure.cloud_service;dashed=1;fontFamily=Helvetica;fontSize=18;fontColor=#FFFFFF;opacity=25" parent="1" vertex="1">
          <mxGeometry x="20" y="225.5" width="970" height="600" as="geometry" />
        </mxCell>
        <mxCell id="2047" value="图片编辑网页系统架构图" style="text;html=1;strokeColor=none;fillColor=none;align=center;verticalAlign=middle;whiteSpace=wrap;overflow=hidden;dashed=1;fontSize=36;fontColor=#FFFFFF;fontFamily=Helvetica;fontStyle=1" parent="1" vertex="1">
          <mxGeometry x="40" y="50" width="1060" height="50" as="geometry" />
        </mxCell>
        <mxCell id="2048" value="Business&amp;nbsp;&lt;div&gt;Analytics&lt;/div&gt;" style="rounded=1;whiteSpace=wrap;html=1;dashed=1;strokeColor=none;strokeWidth=2;fillColor=#FFFFFF;fontFamily=Helvetica;fontSize=14;fontColor=#FFB366;opacity=75;verticalAlign=top;fontStyle=1" parent="1" vertex="1">
          <mxGeometry x="-200" y="204" width="140" height="260" as="geometry" />
        </mxCell>
        <mxCell id="2049" value="Data&lt;div&gt;Management&lt;/div&gt;" style="rounded=1;whiteSpace=wrap;html=1;dashed=1;strokeColor=none;strokeWidth=2;fillColor=#FFFFFF;fontFamily=Helvetica;fontSize=14;fontColor=#FFB366;opacity=75;verticalAlign=top;fontStyle=1" parent="1" vertex="1">
          <mxGeometry x="-220" y="480" width="140" height="320" as="geometry" />
        </mxCell>
        <mxCell id="2055" value="" style="rounded=1;whiteSpace=wrap;html=1;dashed=1;strokeColor=none;strokeWidth=2;fillColor=#FFFFFF;fontFamily=Helvetica;fontSize=14;fontColor=#FFB366;opacity=75;verticalAlign=top;fontStyle=1" parent="1" vertex="1">
          <mxGeometry x="592.5" y="492" width="140" height="280" as="geometry" />
        </mxCell>
        <mxCell id="2075" value="" style="arrow;html=1;endArrow=block;endFill=1;strokeColor=none;strokeWidth=4;fontFamily=Helvetica;fontSize=36;fontColor=#FFB366;fillColor=#FFB366;" parent="1" edge="1">
          <mxGeometry width="100" height="100" relative="1" as="geometry">
            <mxPoint x="173.5" y="389.75" as="sourcePoint" />
            <mxPoint x="253.5" y="389.75" as="targetPoint" />
            <Array as="points">
              <mxPoint x="226.5" y="416.75" />
            </Array>
          </mxGeometry>
        </mxCell>
        <mxCell id="2076" value="" style="arrow;html=1;endArrow=block;endFill=1;strokeColor=none;strokeWidth=4;fontFamily=Helvetica;fontSize=36;fontColor=#FFB366;fillColor=#FFB366;opacity=100" parent="1" edge="1">
          <mxGeometry width="100" height="100" relative="1" as="geometry">
            <mxPoint x="527.5" y="811.23" as="sourcePoint" />
            <mxPoint x="607.5" y="811.23" as="targetPoint" />
          </mxGeometry>
        </mxCell>
        <mxCell id="2077" value="" style="arrow;html=1;endArrow=block;endFill=1;strokeColor=none;strokeWidth=4;fontFamily=Helvetica;fontSize=36;fontColor=#FFB366;fillColor=#FFB366;" parent="1" edge="1">
          <mxGeometry width="100" height="100" relative="1" as="geometry">
            <mxPoint x="527" y="360" as="sourcePoint" />
            <mxPoint x="607" y="360" as="targetPoint" />
          </mxGeometry>
        </mxCell>
        <mxCell id="2078" value="" style="arrow;html=1;endArrow=block;endFill=1;strokeColor=none;strokeWidth=4;fontFamily=Helvetica;fontSize=36;fontColor=#FFB366;fillColor=#FFB366;" parent="1" edge="1">
          <mxGeometry width="100" height="100" relative="1" as="geometry">
            <mxPoint x="714" y="426" as="sourcePoint" />
            <mxPoint x="794" y="426" as="targetPoint" />
          </mxGeometry>
        </mxCell>
        <mxCell id="2079" value="" style="arrow;html=1;endArrow=block;endFill=1;strokeColor=none;strokeWidth=4;fontFamily=Helvetica;fontSize=36;fontColor=#FFB366;fillColor=#FFB366;" parent="1" edge="1">
          <mxGeometry width="100" height="100" relative="1" as="geometry">
            <mxPoint x="714" y="270" as="sourcePoint" />
            <mxPoint x="794" y="270" as="targetPoint" />
          </mxGeometry>
        </mxCell>
        <mxCell id="2082" value="" style="arrow;html=1;endArrow=block;endFill=1;strokeColor=none;strokeWidth=4;fontFamily=Helvetica;fontSize=36;fontColor=#FFB366;fillColor=#FFB366;" parent="1" edge="1">
          <mxGeometry width="100" height="100" relative="1" as="geometry">
            <mxPoint x="707" y="639" as="sourcePoint" />
            <mxPoint x="787" y="639" as="targetPoint" />
          </mxGeometry>
        </mxCell>
        <mxCell id="2083" value="" style="arrow;html=1;endArrow=block;endFill=1;strokeColor=none;strokeWidth=4;fontFamily=Helvetica;fontSize=36;fontColor=#FFB366;fillColor=#FFB366;" parent="1" edge="1">
          <mxGeometry width="100" height="100" relative="1" as="geometry">
            <mxPoint x="534" y="624" as="sourcePoint" />
            <mxPoint x="614" y="624" as="targetPoint" />
          </mxGeometry>
        </mxCell>
        <mxCell id="2085" value="" style="arrow;html=1;endArrow=block;endFill=1;strokeColor=none;strokeWidth=4;fontFamily=Helvetica;fontSize=36;fontColor=#FFB366;fillColor=#FFB366;" parent="1" edge="1">
          <mxGeometry width="100" height="100" relative="1" as="geometry">
            <mxPoint x="174" y="688" as="sourcePoint" />
            <mxPoint x="254" y="688" as="targetPoint" />
          </mxGeometry>
        </mxCell>
        <mxCell id="R0gJPb8_KW4znSFNueRb-2094" value="" style="image;sketch=0;aspect=fixed;html=1;points=[];align=center;fontSize=12;image=img/lib/mscae/VirtualMachineWindows.svg;fontStyle=0" vertex="1" parent="1">
          <mxGeometry x="97.5" y="275" width="50" height="46" as="geometry" />
        </mxCell>
        <mxCell id="R0gJPb8_KW4znSFNueRb-2097" value="" style="image;sketch=0;aspect=fixed;html=1;points=[];align=center;fontSize=12;image=img/lib/mscae/Two_User_Icon.svg;" vertex="1" parent="1">
          <mxGeometry x="97.5" y="434" width="50" height="50" as="geometry" />
        </mxCell>
        <mxCell id="R0gJPb8_KW4znSFNueRb-2098" value="" style="image;sketch=0;aspect=fixed;html=1;points=[];align=center;fontSize=12;image=img/lib/mscae/Azure_Pipelines.svg;" vertex="1" parent="1">
          <mxGeometry x="95" y="587" width="50" height="50" as="geometry" />
        </mxCell>
        <mxCell id="R0gJPb8_KW4znSFNueRb-2099" value="" style="image;sketch=0;aspect=fixed;html=1;points=[];align=center;fontSize=12;image=img/lib/mscae/Batch_AI.svg;" vertex="1" parent="1">
          <mxGeometry x="102" y="727.75" width="36" height="50" as="geometry" />
        </mxCell>
        <mxCell id="R0gJPb8_KW4znSFNueRb-2100" value="&lt;h3 style=&quot;font-size: 15px;&quot;&gt;首页&lt;/h3&gt;" style="text;strokeColor=none;align=center;fillColor=none;html=1;verticalAlign=middle;whiteSpace=wrap;rounded=0;" vertex="1" parent="1">
          <mxGeometry x="92.5" y="348" width="60" height="30" as="geometry" />
        </mxCell>
        <mxCell id="R0gJPb8_KW4znSFNueRb-2101" value="&lt;h3 style=&quot;font-size: 15px;&quot;&gt;图片编辑&lt;/h3&gt;" style="text;strokeColor=none;align=center;fillColor=none;html=1;verticalAlign=middle;whiteSpace=wrap;rounded=0;" vertex="1" parent="1">
          <mxGeometry x="77.5" y="499" width="90" height="26" as="geometry" />
        </mxCell>
        <mxCell id="R0gJPb8_KW4znSFNueRb-2102" value="&lt;h3 style=&quot;font-size: 15px;&quot;&gt;画板&lt;/h3&gt;" style="text;strokeColor=none;align=center;fillColor=none;html=1;verticalAlign=middle;whiteSpace=wrap;rounded=0;" vertex="1" parent="1">
          <mxGeometry x="92.5" y="647.5" width="60" height="30" as="geometry" />
        </mxCell>
        <mxCell id="R0gJPb8_KW4znSFNueRb-2103" value="&lt;h3 style=&quot;font-size: 15px;&quot;&gt;填色游戏&lt;/h3&gt;" style="text;strokeColor=none;align=center;fillColor=none;html=1;verticalAlign=middle;whiteSpace=wrap;rounded=0;" vertex="1" parent="1">
          <mxGeometry x="75" y="797" width="95" height="30" as="geometry" />
        </mxCell>
        <mxCell id="R0gJPb8_KW4znSFNueRb-2107" value="&lt;h3 style=&quot;font-size: 15px;&quot;&gt;标准接口管理&lt;/h3&gt;" style="text;strokeColor=none;align=center;fillColor=none;html=1;verticalAlign=middle;whiteSpace=wrap;rounded=0;" vertex="1" parent="1">
          <mxGeometry x="418.5" y="365.25" width="93" height="48.75" as="geometry" />
        </mxCell>
        <mxCell id="R0gJPb8_KW4znSFNueRb-2108" value="&lt;h3 style=&quot;font-size: 15px;&quot;&gt;网站群管理&lt;/h3&gt;" style="text;strokeColor=none;align=center;fillColor=none;html=1;verticalAlign=middle;whiteSpace=wrap;rounded=0;" vertex="1" parent="1">
          <mxGeometry x="261" y="288" width="110" height="40" as="geometry" />
        </mxCell>
        <mxCell id="R0gJPb8_KW4znSFNueRb-2109" value="&lt;h3 style=&quot;font-size: 15px;&quot;&gt;登录注册服务&lt;/h3&gt;" style="text;strokeColor=none;align=center;fillColor=none;html=1;verticalAlign=middle;whiteSpace=wrap;rounded=0;" vertex="1" parent="1">
          <mxGeometry x="261" y="462" width="110" height="30" as="geometry" />
        </mxCell>
        <mxCell id="R0gJPb8_KW4znSFNueRb-2110" value="&lt;h3 style=&quot;font-size: 15px;&quot;&gt;图片上传、保存&lt;/h3&gt;" style="text;strokeColor=none;align=center;fillColor=none;html=1;verticalAlign=middle;whiteSpace=wrap;rounded=0;" vertex="1" parent="1">
          <mxGeometry x="410" y="580" width="110" height="30" as="geometry" />
        </mxCell>
        <mxCell id="R0gJPb8_KW4znSFNueRb-2112" value="&lt;h3 style=&quot;font-size: 15px;&quot;&gt;在线图片编辑&lt;/h3&gt;" style="text;strokeColor=none;align=center;fillColor=none;html=1;verticalAlign=middle;whiteSpace=wrap;rounded=0;" vertex="1" parent="1">
          <mxGeometry x="268" y="669" width="110" height="30" as="geometry" />
        </mxCell>
        <mxCell id="R0gJPb8_KW4znSFNueRb-2113" value="&lt;h3 style=&quot;font-size: 15px;&quot;&gt;画板编辑&lt;/h3&gt;" style="text;strokeColor=none;align=center;fillColor=none;html=1;verticalAlign=middle;whiteSpace=wrap;rounded=0;" vertex="1" parent="1">
          <mxGeometry x="410" y="770" width="110" height="30" as="geometry" />
        </mxCell>
        <mxCell id="R0gJPb8_KW4znSFNueRb-2114" value="&lt;h3 style=&quot;font-size: 15px;&quot;&gt;填色游戏&lt;/h3&gt;" style="text;strokeColor=none;align=center;fillColor=none;html=1;verticalAlign=middle;whiteSpace=wrap;rounded=0;" vertex="1" parent="1">
          <mxGeometry x="268" y="847" width="110" height="30" as="geometry" />
        </mxCell>
        <mxCell id="R0gJPb8_KW4znSFNueRb-2115" style="edgeStyle=orthogonalEdgeStyle;rounded=0;orthogonalLoop=1;jettySize=auto;html=1;exitX=0;exitY=0.5;exitDx=0;exitDy=0;exitPerimeter=0;entryX=0.42;entryY=1;entryDx=0;entryDy=0;entryPerimeter=0;" edge="1" parent="1">
          <mxGeometry relative="1" as="geometry">
            <mxPoint x="-140" y="353" as="sourcePoint" />
            <mxPoint x="-119" y="378" as="targetPoint" />
          </mxGeometry>
        </mxCell>
        <mxCell id="R0gJPb8_KW4znSFNueRb-2116" value="&lt;h3 style=&quot;font-size: 15px;&quot;&gt;用户身份验证&lt;/h3&gt;" style="text;strokeColor=none;align=center;fillColor=none;html=1;verticalAlign=middle;whiteSpace=wrap;rounded=0;" vertex="1" parent="1">
          <mxGeometry x="607.5" y="240" width="110" height="30" as="geometry" />
        </mxCell>
        <mxCell id="R0gJPb8_KW4znSFNueRb-2117" value="&lt;h3 style=&quot;font-size: 15px;&quot;&gt;HTTP/HTTPS&lt;/h3&gt;" style="text;strokeColor=none;align=center;fillColor=none;html=1;verticalAlign=middle;whiteSpace=wrap;rounded=0;" vertex="1" parent="1">
          <mxGeometry x="607.5" y="335.25" width="110" height="30" as="geometry" />
        </mxCell>
        <mxCell id="R0gJPb8_KW4znSFNueRb-2118" value="&lt;h3 style=&quot;font-size: 15px;&quot;&gt;图像编辑库&lt;/h3&gt;" style="text;strokeColor=none;align=center;fillColor=none;html=1;verticalAlign=middle;whiteSpace=wrap;rounded=0;" vertex="1" parent="1">
          <mxGeometry x="607.5" y="444" width="110" height="30" as="geometry" />
        </mxCell>
        <mxCell id="R0gJPb8_KW4znSFNueRb-2120" value="&lt;h3 style=&quot;font-size: 15px;&quot;&gt;Vue、Fabric.js、Element-plus&lt;/h3&gt;" style="text;strokeColor=none;align=center;fillColor=none;html=1;verticalAlign=middle;whiteSpace=wrap;rounded=0;" vertex="1" parent="1">
          <mxGeometry x="607.5" y="561" width="110" height="30" as="geometry" />
        </mxCell>
        <mxCell id="R0gJPb8_KW4znSFNueRb-2123" value="&lt;h3 style=&quot;font-size: 15px;&quot;&gt;HTML5、Javascript、CSS&lt;/h3&gt;" style="text;strokeColor=none;align=center;fillColor=none;html=1;verticalAlign=middle;whiteSpace=wrap;rounded=0;" vertex="1" parent="1">
          <mxGeometry x="607.5" y="727.75" width="110" height="30" as="geometry" />
        </mxCell>
        <mxCell id="R0gJPb8_KW4znSFNueRb-2124" value="&lt;h3 style=&quot;font-size: 15px;&quot;&gt;文件存储&lt;/h3&gt;" style="text;strokeColor=none;align=center;fillColor=none;html=1;verticalAlign=middle;whiteSpace=wrap;rounded=0;" vertex="1" parent="1">
          <mxGeometry x="607.5" y="866" width="110" height="30" as="geometry" />
        </mxCell>
        <mxCell id="R0gJPb8_KW4znSFNueRb-2125" value="&lt;h3 style=&quot;font-size: 15px;&quot;&gt;基础网络环境&lt;/h3&gt;" style="text;strokeColor=none;align=center;fillColor=none;html=1;verticalAlign=middle;whiteSpace=wrap;rounded=0;" vertex="1" parent="1">
          <mxGeometry x="787.5" y="298" width="110" height="30" as="geometry" />
        </mxCell>
        <mxCell id="R0gJPb8_KW4znSFNueRb-2126" value="&lt;h3 style=&quot;font-size: 15px;&quot;&gt;服务器&lt;/h3&gt;" style="text;strokeColor=none;align=center;fillColor=none;html=1;verticalAlign=middle;whiteSpace=wrap;rounded=0;" vertex="1" parent="1">
          <mxGeometry x="787" y="484" width="110" height="30" as="geometry" />
        </mxCell>
        <mxCell id="R0gJPb8_KW4znSFNueRb-2128" value="&lt;h3 style=&quot;font-size: 15px;&quot;&gt;数据库&lt;/h3&gt;" style="text;strokeColor=none;align=center;fillColor=none;html=1;verticalAlign=middle;whiteSpace=wrap;rounded=0;" vertex="1" parent="1">
          <mxGeometry x="787.5" y="657.5" width="110" height="30" as="geometry" />
        </mxCell>
        <mxCell id="R0gJPb8_KW4znSFNueRb-2129" value="&lt;h3 style=&quot;font-size: 15px;&quot;&gt;安全性考虑&lt;/h3&gt;" style="text;strokeColor=none;align=center;fillColor=none;html=1;verticalAlign=middle;whiteSpace=wrap;rounded=0;" vertex="1" parent="1">
          <mxGeometry x="787.5" y="810" width="110" height="30" as="geometry" />
        </mxCell>
        <mxCell id="R0gJPb8_KW4znSFNueRb-2134" style="edgeStyle=orthogonalEdgeStyle;rounded=0;orthogonalLoop=1;jettySize=auto;html=1;exitX=0.75;exitY=0;exitDx=0;exitDy=0;entryX=0.659;entryY=0.2;entryDx=0;entryDy=0;entryPerimeter=0;" edge="1" parent="1" source="R0gJPb8_KW4znSFNueRb-2128" target="R0gJPb8_KW4znSFNueRb-2128">
          <mxGeometry relative="1" as="geometry" />
        </mxCell>
        <mxCell id="R0gJPb8_KW4znSFNueRb-2137" value="" style="image;sketch=0;aspect=fixed;html=1;points=[];align=center;fontSize=12;image=img/lib/mscae/Grid3x3.svg;" vertex="1" parent="1">
          <mxGeometry x="291" y="225" width="50" height="50" as="geometry" />
        </mxCell>
        <mxCell id="R0gJPb8_KW4znSFNueRb-2138" value="" style="image;sketch=0;aspect=fixed;html=1;points=[];align=center;fontSize=12;image=img/lib/mscae/Elastic_Database_Pools.svg;" vertex="1" parent="1">
          <mxGeometry x="440" y="315" width="50" height="50" as="geometry" />
        </mxCell>
        <mxCell id="R0gJPb8_KW4znSFNueRb-2139" value="" style="image;sketch=0;aspect=fixed;html=1;points=[];align=center;fontSize=12;image=img/lib/mscae/User_Privacy.svg;" vertex="1" parent="1">
          <mxGeometry x="305" y="384" width="36" height="50" as="geometry" />
        </mxCell>
        <mxCell id="R0gJPb8_KW4znSFNueRb-2141" value="" style="image;sketch=0;aspect=fixed;html=1;points=[];align=center;fontSize=12;image=img/lib/mscae/BlobBlock.svg;" vertex="1" parent="1">
          <mxGeometry x="440" y="519" width="50" height="42" as="geometry" />
        </mxCell>
        <mxCell id="R0gJPb8_KW4znSFNueRb-2142" value="" style="image;sketch=0;aspect=fixed;html=1;points=[];align=center;fontSize=12;image=img/lib/mscae/Cloud_Services_Classic.svg;" vertex="1" parent="1">
          <mxGeometry x="298" y="595" width="50" height="42" as="geometry" />
        </mxCell>
        <mxCell id="R0gJPb8_KW4znSFNueRb-2147" value="" style="image;sketch=0;aspect=fixed;html=1;points=[];align=center;fontSize=12;image=img/lib/mscae/Blueprints.svg;" vertex="1" parent="1">
          <mxGeometry x="440" y="702" width="50" height="48" as="geometry" />
        </mxCell>
        <mxCell id="R0gJPb8_KW4znSFNueRb-2148" value="" style="image;sketch=0;aspect=fixed;html=1;points=[];align=center;fontSize=12;image=img/lib/mscae/LogDiagnostics.svg;" vertex="1" parent="1">
          <mxGeometry x="300.5" y="787" width="45" height="50" as="geometry" />
        </mxCell>
        <mxCell id="R0gJPb8_KW4znSFNueRb-2149" value="" style="image;sketch=0;aspect=fixed;html=1;points=[];align=center;fontSize=12;image=img/lib/mscae/Security_Center.svg;" vertex="1" parent="1">
          <mxGeometry x="824" y="750" width="36" height="50" as="geometry" />
        </mxCell>
        <mxCell id="R0gJPb8_KW4znSFNueRb-2150" value="" style="image;sketch=0;aspect=fixed;html=1;points=[];align=center;fontSize=12;image=img/lib/mscae/Identity_Governance.svg;" vertex="1" parent="1">
          <mxGeometry x="637.5" y="180" width="50" height="50" as="geometry" />
        </mxCell>
        <mxCell id="R0gJPb8_KW4znSFNueRb-2151" value="" style="image;sketch=0;aspect=fixed;html=1;points=[];align=center;fontSize=12;image=img/lib/mscae/Azure_AD_Privileged_Identity_Management.svg;" vertex="1" parent="1">
          <mxGeometry x="637.5" y="278" width="50" height="50" as="geometry" />
        </mxCell>
        <mxCell id="R0gJPb8_KW4znSFNueRb-2152" value="" style="image;sketch=0;aspect=fixed;html=1;points=[];align=center;fontSize=12;image=img/lib/mscae/Enterprise_Applications.svg;" vertex="1" parent="1">
          <mxGeometry x="640.5" y="389" width="49" height="50" as="geometry" />
        </mxCell>
        <mxCell id="R0gJPb8_KW4znSFNueRb-2153" value="" style="image;sketch=0;aspect=fixed;html=1;points=[];align=center;fontSize=12;image=img/lib/mscae/Event_Grid_Topics.svg;" vertex="1" parent="1">
          <mxGeometry x="637.5" y="637.5" width="50" height="50" as="geometry" />
        </mxCell>
        <mxCell id="R0gJPb8_KW4znSFNueRb-2155" value="" style="image;sketch=0;aspect=fixed;html=1;points=[];align=center;fontSize=12;image=img/lib/mscae/Tags.svg;" vertex="1" parent="1">
          <mxGeometry x="644" y="800" width="42" height="50" as="geometry" />
        </mxCell>
        <mxCell id="R0gJPb8_KW4znSFNueRb-2156" value="" style="image;sketch=0;aspect=fixed;html=1;points=[];align=center;fontSize=12;image=img/lib/mscae/Management_Groups.svg;" vertex="1" parent="1">
          <mxGeometry x="637.5" y="499" width="50" height="40" as="geometry" />
        </mxCell>
        <mxCell id="R0gJPb8_KW4znSFNueRb-2159" value="" style="image;sketch=0;aspect=fixed;html=1;points=[];align=center;fontSize=12;image=img/lib/mscae/Cache_including_Redis.svg;" vertex="1" parent="1">
          <mxGeometry x="820" y="597.5" width="50" height="50" as="geometry" />
        </mxCell>
        <mxCell id="R0gJPb8_KW4znSFNueRb-2160" value="" style="image;sketch=0;aspect=fixed;html=1;points=[];align=center;fontSize=12;image=img/lib/mscae/Non_Azure_Machine.svg;" vertex="1" parent="1">
          <mxGeometry x="829.5" y="414" width="31" height="50" as="geometry" />
        </mxCell>
        <mxCell id="R0gJPb8_KW4znSFNueRb-2162" value="" style="image;sketch=0;aspect=fixed;html=1;points=[];align=center;fontSize=12;image=img/lib/mscae/OS_Images_Classic.svg;" vertex="1" parent="1">
          <mxGeometry x="820" y="227" width="50" height="46" as="geometry" />
        </mxCell>
        <mxCell id="R0gJPb8_KW4znSFNueRb-2163" value="&lt;font&gt;业务逻辑层&lt;br&gt;&lt;/font&gt;" style="whiteSpace=wrap;html=1;dashed=1;strokeColor=none;strokeWidth=2;fillColor=#3399FF;fontFamily=Helvetica;fontSize=18;fontColor=#000000;fontStyle=1;fillStyle=dashed;" vertex="1" parent="1">
          <mxGeometry x="582.5" y="120" width="165" height="60" as="geometry" />
        </mxCell>
      </root>
    </mxGraphModel>
  </diagram>
</mxfile>
